<svg width="1200" height="420" viewBox="0 0 1200 420" xmlns="http://www.w3.org/2000/svg">
  <defs>
    <linearGradient id="bg4" x1="0" y1="0" x2="1" y2="1">
      <stop offset="0%" stop-color="#14532d"/>
      <stop offset="100%" stop-color="#78350f"/>
    </linearGradient>
  </defs>
  <rect width="1200" height="420" fill="url(#bg4)"/>
  <circle cx="970" cy="112" r="178" fill="#bbf7d0" opacity="0.2"/>
  <circle cx="1100" cy="274" r="122" fill="#fde68a" opacity="0.2"/>
  <rect x="80" y="96" width="302" height="222" rx="24" fill="#fefce8"/>
  <path d="M120 250 C190 130 270 130 340 250" stroke="#854d0e" stroke-width="8" fill="none"/>
  <path d="M130 236 C190 156 260 156 320 236" stroke="#a16207" stroke-width="6" fill="none"/>
  <path d="M145 224 C190 176 250 176 295 224" stroke="#ca8a04" stroke-width="5" fill="none"/>
  <circle cx="192" cy="206" r="8" fill="#a16207"/>
  <circle cx="230" cy="192" r="7" fill="#a16207"/>
  <circle cx="268" cy="206" r="8" fill="#a16207"/>
  <text x="420" y="176" fill="#fefce8" font-size="62" font-family="Inter, Arial, sans-serif" font-weight="800">Mehndi Artist</text>
  <text x="420" y="238" fill="#fef9c3" font-size="34" font-family="Inter, Arial, sans-serif" font-weight="500">Elegant festive and bridal henna designs</text>
  <rect x="420" y="274" width="330" height="62" rx="31" fill="#a16207"/>
  <text x="486" y="315" fill="#ffffff" font-size="30" font-family="Inter, Arial, sans-serif" font-weight="700">View Styles</text>
</svg>
